HIERARCHY
ROOT Hips
{
	OFFSET	0.00	0.00	0.00
	CHANNELS 6 Xposition Yposition Zposition Zrotation Xrotation Yrotation
	JOINT LeftUpLeg
	{
		OFFSET	 0.126116	-0.065224	 0.014019
		CHANNELS 3 Zrotation Xrotation Yrotation
		JOINT LeftLeg
		{
			OFFSET	 0.000000	 0.569914	 0.000000
			CHANNELS 3 Zrotation Xrotation Yrotation
			JOINT LeftFoot
			{
				OFFSET	 0.000000	 0.544423	 0.000000
				CHANNELS 3 Zrotation Xrotation Yrotation
				JOINT LeftToeBase
				{
					OFFSET	 0.000000	 0.207117	 0.000000
					CHANNELS 3 Zrotation Xrotation Yrotation
					End Site
					{
						OFFSET	 0.000000	 0.207117	 0.000000
					}
				}
			}
		}
	}
	JOINT RightUpLeg
	{
		OFFSET	-0.124023	-0.065224	 0.008373
		CHANNELS 3 Zrotation Xrotation Yrotation
		JOINT RightLeg
		{
			OFFSET	 0.000000	 0.570047	 0.000000
			CHANNELS 3 Zrotation Xrotation Yrotation
			JOINT RightFoot
			{
				OFFSET	 0.000000	 0.544354	 0.000000
				CHANNELS 3 Zrotation Xrotation Yrotation
				JOINT RightToeBase
				{
					OFFSET	 0.000000	 0.207540	 0.000000
					CHANNELS 3 Zrotation Xrotation Yrotation
					End Site
					{
						OFFSET	 0.000000	 0.207540	 0.000000
					}
				}
			}
		}
	}
	JOINT Spine
	{
		OFFSET	 0.000184	 0.117403	 0.007763
		CHANNELS 3 Zrotation Xrotation Yrotation
		JOINT Spine1
		{
			OFFSET	 0.000000	 0.137269	 0.000000
			CHANNELS 3 Zrotation Xrotation Yrotation
			JOINT Spine2
			{
				OFFSET	 0.000000	 0.156879	 0.000000
				CHANNELS 3 Zrotation Xrotation Yrotation
				JOINT LeftShoulder
				{
					OFFSET	 0.080501	 0.160143	 0.002496
					CHANNELS 3 Zrotation Xrotation Yrotation
					JOINT LeftArm
					{
						OFFSET	 0.000000	 0.164363	 0.000000
						CHANNELS 3 Zrotation Xrotation Yrotation
						JOINT LeftForeArm
						{
							OFFSET	 0.000000	 0.364576	 0.000000
							CHANNELS 3 Zrotation Xrotation Yrotation
							JOINT LeftHand
							{
								OFFSET	 0.000000	 0.360812	 0.000000
								CHANNELS 3 Zrotation Xrotation Yrotation
								JOINT LeftHandIndex1
								{
									OFFSET	 0.000000	 0.086006	 0.000000
									CHANNELS 3 Zrotation Xrotation Yrotation
									JOINT LeftHandIndex2
									{
										OFFSET	 0.000000	 0.047237	 0.000000
										CHANNELS 3 Zrotation Xrotation Yrotation
										JOINT LeftHandIndex3
										{
											OFFSET	-0.004284	 0.038165	 0.000551
											CHANNELS 3 Zrotation Xrotation Yrotation
											End Site
											{
												OFFSET	-0.004284	 0.038165	 0.000551
											}
										}
									}
								}
							}
						}
					}
				}
				JOINT Neck
				{
					OFFSET	 0.000000	 0.176489	 0.000000
					CHANNELS 3 Zrotation Xrotation Yrotation
					JOINT Head
					{
						OFFSET	 0.000000	 0.077941	 0.001747
						CHANNELS 3 Zrotation Xrotation Yrotation
						End Site
						{
							OFFSET	 0.000000	 0.077941	 0.001747
						}
					}
				}
				JOINT RightShoulder
				{
					OFFSET	-0.080363	 0.159706	-0.000306
					CHANNELS 3 Zrotation Xrotation Yrotation
					JOINT RightArm
					{
						OFFSET	 0.000000	 0.164196	 0.000000
						CHANNELS 3 Zrotation Xrotation Yrotation
						JOINT RightForeArm
						{
							OFFSET	 0.000000	 0.365611	 0.000000
							CHANNELS 3 Zrotation Xrotation Yrotation
							JOINT RightHand
							{
								OFFSET	 0.000000	 0.360648	 0.000000
								CHANNELS 3 Zrotation Xrotation Yrotation
								JOINT RightHandIndex1
								{
									OFFSET	 0.000000	 0.069977	 0.000000
									CHANNELS 3 Zrotation Xrotation Yrotation
									JOINT RightHandIndex2
									{
										OFFSET	 0.000000	 0.052305	 0.000000
										CHANNELS 3 Zrotation Xrotation Yrotation
										JOINT RightHandIndex3
										{
											OFFSET	 0.009002	 0.042196	 0.000782
											CHANNELS 3 Zrotation Xrotation Yrotation
											End Site
											{
												OFFSET	 0.009002	 0.042196	 0.000782
											}
										}
									}
								}
							}
						}
					}
				}
			}
		}
	}
}
MOTION
Frames:    4
Frame Time: 0.03333334
 0.436563	 1.273821	 0.406562	 0.550569	-2.353638	-177.254000	 177.809700	 6.548308	 2.995573	 3.502718	-12.951610	 5.984585	 5.675174	 69.958740	-1.711019	 1.292262	 28.425850	-2.713146	 179.462700	 8.070182	-1.383201	-2.287786	-11.732740	 0.801978	 1.303769	 67.390210	-5.973385	-1.288183	 28.361890	 2.710176	-0.684032	 5.996408	-7.416523	 2.283297	-4.936052	-3.747766	-1.386257	 5.668840	 11.051620	-117.459200	-0.779890	 89.958460	 1.296273	 0.114893	-7.820762	 29.509330	-2.295278	 35.310380	-29.866410	 6.253366	-8.775596	-6.580301	 5.266122	 0.000000	 0.000000	 0.000000	 0.000000	 0.000000	 0.000000	 0.000000	 4.795020	 27.116100	 1.713064	-3.831346	-16.488620	 2.982183	 116.287700	-0.440204	-90.569130	-3.517584	 3.820163	 19.298410	-20.874860	 0.487080	-57.114730	-24.499650	-22.019240	 2.039920	 15.208500	 5.323790	 0.000000	 0.000000	 0.000000	 0.000000	 0.000000	 0.000000	 0.000000
 0.436524	 1.275597	 0.406399	 0.558618	-2.360334	-177.253300	 177.795700	 6.456525	 3.450819	 3.453163	-12.774640	 5.975329	 5.527375	 69.560110	-1.574931	 1.292262	 28.425850	-2.713146	 179.514200	 8.063317	-1.842385	-2.285457	-11.721200	 0.799915	 1.336843	 67.088700	-5.969176	-1.288183	 28.361890	 2.710176	-0.676856	 5.926023	-7.394342	 2.288557	-4.719463	-3.735979	-1.374371	 5.364760	 11.011500	-117.466900	-0.782215	 89.957420	 0.920640	 0.094669	-7.849796	 30.198940	-2.343955	 35.317130	-29.960380	 6.361239	-8.799087	-6.580301	 5.266122	 0.000000	 0.000000	 0.000000	 0.000000	 0.000000	 0.000000	 0.000000	 4.800337	 27.132870	 1.708654	-3.829364	-16.538760	 2.974771	 116.299700	-0.443534	-90.567990	-2.969985	 3.919442	 19.250910	-21.922670	 0.510287	-57.089970	-24.140920	-21.709920	 2.445057	 15.208500	 5.323790	 0.000000	 0.000000	 0.000000	 0.000000	 0.000000	 0.000000	 0.000000
 0.436487	 1.277540	 0.406284	 0.566866	-2.382714	-177.250800	 177.746700	 6.475282	 3.952816	 3.457615	-12.790560	 5.981843	 5.386618	 69.231220	-1.469272	 1.292262	 28.425850	-2.713146	 179.568100	 8.071266	-2.341178	-2.281773	-11.702780	 0.792498	 1.361949	 66.753850	-5.951748	-1.288183	 28.361890	 2.710176	-0.667862	 5.861567	-7.348038	 2.285803	-4.522728	-3.713515	-1.355568	 5.077724	 10.935560	-117.490800	-0.789530	 89.954160	 0.509954	 0.078146	-7.844761	 30.988070	-2.399046	 35.284230	-29.977720	 6.420509	-8.781505	-6.580301	 5.266122	 0.000000	 0.000000	 0.000000	 0.000000	 0.000000	 0.000000	 0.000000	 4.816989	 27.185320	 1.694839	-3.828844	-16.608270	 2.960488	 116.337500	-0.453974	-90.564390	-2.392274	 4.018071	 19.181280	-23.066170	 0.535521	-57.030880	-23.712270	-21.329780	 2.846549	 15.208500	 5.323790	 0.000000	 0.000000	 0.000000	 0.000000	 0.000000	 0.000000	 0.000000
 0.436456	 1.279526	 0.406241	 0.574662	-2.423169	-177.246700	 177.696600	 6.513221	 4.466114	 3.460346	-12.800350	 5.992363	 5.250946	 68.888790	-1.372656	 1.292262	 28.425850	-2.713146	 179.620400	 8.097882	-2.847619	-2.276739	-11.677710	 0.778970	 1.376889	 66.405490	-5.920439	-1.288183	 28.361890	 2.710176	-0.657732	 5.810377	-7.276813	 2.273721	-4.367226	-3.679775	-1.330284	 4.837148	 10.823790	-117.533800	-0.802650	 89.948300	 0.088622	 0.070222	-7.794421	 31.840670	-2.458179	 35.202870	-29.905350	 6.414260	-8.714490	-6.580301	 5.266122	 0.000000	 0.000000	 0.000000	 0.000000	 0.000000	 0.000000	 0.000000	 4.846934	 27.279450	 1.669981	-3.830192	-16.697010	 2.939631	 116.405400	-0.472687	-90.557930	-1.821182	 4.111163	 19.089080	-24.243200	 0.561295	-56.933140	-23.236140	-20.892980	 3.202266	 15.208500	 5.323790	 0.000000	 0.000000	 0.000000	 0.000000	 0.000000	 0.000000	 0.000000
